<?xml version="1.0" encoding="UTF-8" standalone="no"?>
<!-- Created with Inkscape (http://www.inkscape.org/) -->

<svg
   width="51"
   height="56"
   viewBox="0 0 51 56"
   version="1.1"
   id="svg5"
   xml:space="preserve"
   xmlns="http://www.w3.org/2000/svg"
   xmlns:svg="http://www.w3.org/2000/svg"><defs
     id="defs2"><rect
       x="13.258252"
       y="4.331029"
       width="18.915108"
       height="31.643028"
       id="rect1431" /></defs><g
     id="layer1"><path
       style="display:inline;fill:#593c8f;fill-opacity:1;stroke:#000000;stroke-linejoin:round;stroke-miterlimit:4.5"
       d="m 50.5,38.598965 v -28 l -25,13 v 32 z"
       id="path294" /><path
       style="display:inline;fill:#167a49;fill-opacity:1;stroke:#000000;stroke-linejoin:round;stroke-miterlimit:4.5"
       d="m 25.5,23.598965 -25,-13 v 28 l 25,17 z"
       id="path506" /><path
       style="fill:#ffffff;fill-opacity:1;stroke:#000000;stroke-width:0.999999;stroke-linejoin:round;stroke-miterlimit:4.5"
       d="m 25.5,23.598965 25,-13 L 25.5,0.59896495 0.5,10.598965 Z"
       id="path508" /><g
       id="g355"
       style="display:none"><g
         id="g321"
         transform="matrix(0.97699376,-0.64616728,0.67423231,0.93632624,-21.417518,26.159642)"
         style="stroke-width:0.860519"><path
           style="fill:#000000;fill-opacity:1;stroke-width:11.2791"
           class="st4"
           d="m 32.1,258.7 115,-30 -115,-30 -30,-115 -30,115 -115,30 115,30 30,115 z"
           id="path14"
           transform="matrix(0.07369937,0,0,0.07369937,37.964967,15.428773)" /><path
           style="fill:#000000;fill-opacity:1;stroke-width:11.2791"
           class="st4"
           d="m 210,420.9 c 0,50.8 41.2,92 92,92 50.8,0 92,-41.2 92,-92 0,-50.8 -41.2,-92 -92,-92 -50.8,0 -92,41.2 -92,92 z m 165.6,0 c 0,40.6 -32.9,73.6 -73.6,73.6 -40.6,0 -73.6,-32.9 -73.6,-73.6 0,0 0,0 0,0 0,-40.6 32.9,-73.6 73.6,-73.6 40.6,0 73.6,32.9 73.6,73.6 z"
           id="path18"
           transform="matrix(0.07629334,0,0,0.07629334,15.076965,0.17010484)" /></g><g
         id="g338"
         transform="matrix(0.89723996,0.51801308,-0.72632835,0.64777383,14.603867,-29.066266)"
         style="stroke-width:1.02198"><path
           style="fill:#000000;fill-opacity:1;stroke-width:13.3953"
           class="st4"
           d="m 32.1,258.7 115,-30 -115,-30 -30,-115 -30,115 -115,30 115,30 30,115 z"
           id="path334"
           transform="matrix(0.07369937,0,0,0.07369937,37.964967,15.428773)" /><path
           style="fill:#000000;fill-opacity:1;stroke-width:13.3953"
           class="st4"
           d="m 210,420.9 c 0,50.8 41.2,92 92,92 50.8,0 92,-41.2 92,-92 0,-50.8 -41.2,-92 -92,-92 -50.8,0 -92,41.2 -92,92 z m 165.6,0 c 0,40.6 -32.9,73.6 -73.6,73.6 -40.6,0 -73.6,-32.9 -73.6,-73.6 0,0 0,0 0,0 0,-40.6 32.9,-73.6 73.6,-73.6 40.6,0 73.6,32.9 73.6,73.6 z"
           id="path336"
           transform="matrix(0.07629334,0,0,0.07629334,15.076965,0.17010484)" /></g><g
         id="g344"
         transform="matrix(0.85965291,0.68459184,-0.68459184,0.85965291,2.4002358,-23.148669)"
         style="stroke-width:0.909968"><path
           style="fill:#000000;fill-opacity:1;stroke-width:11.9272"
           class="st4"
           d="m 32.1,258.7 115,-30 -115,-30 -30,-115 -30,115 -115,30 115,30 30,115 z"
           id="path340"
           transform="matrix(0.07369937,0,0,0.07369937,37.964967,15.428773)" /><path
           style="fill:#000000;fill-opacity:1;stroke-width:11.9272"
           class="st4"
           d="m 210,420.9 c 0,50.8 41.2,92 92,92 50.8,0 92,-41.2 92,-92 0,-50.8 -41.2,-92 -92,-92 -50.8,0 -92,41.2 -92,92 z m 165.6,0 c 0,40.6 -32.9,73.6 -73.6,73.6 -40.6,0 -73.6,-32.9 -73.6,-73.6 0,0 0,0 0,0 0,-40.6 32.9,-73.6 73.6,-73.6 40.6,0 73.6,32.9 73.6,73.6 z"
           id="path342"
           transform="matrix(0.07629334,0,0,0.07629334,15.076965,0.17010484)" /></g></g><g
       id="g329"
       style="display:inline"><text
         xml:space="preserve"
         style="font-size:24.9658px;font-family:Mojangles;-inkscape-font-specification:Mojangles;fill:#000000;fill-opacity:1;stroke:none;stroke-width:0.999998;stroke-linejoin:round;stroke-miterlimit:4.5"
         x="-5.6333475"
         y="56.334213"
         id="text3372"
         transform="rotate(-34.001778)"><tspan
           id="tspan3370"
           x="-5.6333475"
           y="56.334213"
           style="font-style:normal;font-variant:normal;font-weight:normal;font-stretch:normal;font-family:sans-serif;-inkscape-font-specification:sans-serif;stroke-width:0.999998">⎇</tspan></text><text
         xml:space="preserve"
         style="font-size:19.7975px;font-family:Mojangles;-inkscape-font-specification:Mojangles;fill:#000000;fill-opacity:1;stroke:none;stroke-width:0.999994;stroke-linejoin:round;stroke-miterlimit:4.5"
         x="15.995193"
         y="23.39303"
         id="text3426"
         transform="rotate(34.670033)"><tspan
           id="tspan3424"
           x="15.995193"
           y="23.39303"
           style="font-style:normal;font-variant:normal;font-weight:normal;font-stretch:normal;font-family:sans-serif;-inkscape-font-specification:sans-serif;stroke-width:0.999994">⎇</tspan></text><text
         xml:space="preserve"
         style="font-size:23.6724px;font-family:Mojangles;-inkscape-font-specification:Mojangles;fill:#000000;fill-opacity:1;stroke:none;stroke-width:0.999995;stroke-linejoin:round;stroke-miterlimit:4.5"
         x="8.9754829"
         y="6.4064856"
         id="text3430"
         transform="rotate(27.644754)"><tspan
           id="tspan3428"
           x="8.9754829"
           y="6.4064856"
           style="font-style:normal;font-variant:normal;font-weight:normal;font-stretch:normal;font-family:sans-serif;-inkscape-font-specification:sans-serif;stroke-width:0.999995">⎇</tspan></text></g><g
       id="g1278"
       style="display:none"><path
         style="fill:none;stroke:#000000;stroke-width:0.286599;stroke-linejoin:round;stroke-miterlimit:4.5;stroke-dasharray:none;stroke-opacity:1"
         id="path1273"
         d="M 27.221076,2.1530295 24.5116,14.864039 32.466513,4.5866388 20.839315,10.393469 33.834317,10.205017 22.044914,4.7350068 30.294504,14.77741 27.220557,2.1495887 24.512625,14.860714 32.468879,4.5840877 20.842554,10.392198 33.837787,10.205276 22.047928,4.7367463 30.296464,14.780285 Z"
         transform="matrix(1.4545979,-0.96320366,0.96320366,1.4545979,-10.438432,45.728196)" /><path
         style="fill:none;stroke:#000000;stroke-width:0.280803;stroke-linejoin:round;stroke-miterlimit:4.5;stroke-dasharray:none;stroke-opacity:1"
         id="path1271"
         d="M 27.221076,2.1530295 24.5116,14.864039 32.466513,4.5866388 20.839315,10.393469 33.834317,10.205017 22.044914,4.7350068 30.294504,14.77741 27.220557,2.1495887 24.512625,14.860714 32.468879,4.5840877 20.842554,10.392198 33.837787,10.205276 22.047928,4.7367463 30.296464,14.780285 Z"
         transform="matrix(1.5497475,0.87684107,-0.87684107,1.5497475,-21.916307,-5.4680169)" /><path
         style="fill:none;stroke:#000000;stroke-width:0.319491;stroke-linejoin:round;stroke-miterlimit:4.5;stroke-dasharray:none;stroke-opacity:1"
         id="path562"
         d="M 27.221076,2.1530295 24.5116,14.864039 32.466513,4.5866388 20.839315,10.393469 33.834317,10.205017 22.044914,4.7350068 30.294504,14.77741 27.220557,2.1495887 24.512625,14.860714 32.468879,4.5840877 20.842554,10.392198 33.837787,10.205276 22.047928,4.7367463 30.296464,14.780285 Z"
         transform="matrix(1.5381516,0.73689933,-0.94559404,1.1392797,-8.689916,-18.156642)" /></g><g
       id="g508"
       style="display:none"><text
         xml:space="preserve"
         style="font-style:normal;font-variant:normal;font-weight:normal;font-stretch:normal;font-size:5.33333px;font-family:sans-serif;-inkscape-font-specification:sans-serif;vector-effect:non-scaling-stroke;fill:#593c8f;fill-opacity:1;stroke:none;stroke-width:1;stroke-linejoin:round;stroke-miterlimit:4.5;stroke-dasharray:none;-inkscape-stroke:hairline"
         x="5.4262047"
         y="7.6924047"
         id="text7456"><tspan
           id="tspan7454"
           x="5.4262047"
           y="7.6924047"
           style="font-style:normal;font-variant:normal;font-weight:normal;font-stretch:normal;font-size:5.33333px;font-family:Impact;-inkscape-font-specification:Impact;vector-effect:non-scaling-stroke;fill:#ffffff;fill-opacity:1;stroke:#000000;stroke-width:1;stroke-dasharray:none;stroke-opacity:1;-inkscape-stroke:hairline">ALTERHUMAN BLOCK</tspan></text><text
         xml:space="preserve"
         style="font-style:normal;font-variant:normal;font-weight:normal;font-stretch:normal;font-size:5.33333px;font-family:Impact;-inkscape-font-specification:Impact;vector-effect:non-scaling-stroke;fill:#000000;fill-opacity:1;stroke:none;stroke-width:1;stroke-linejoin:round;stroke-miterlimit:4.5;stroke-dasharray:none;-inkscape-stroke:hairline"
         x="5.1352997"
         y="51.459438"
         id="text7460"><tspan
           id="tspan7458"
           x="5.1352997"
           y="51.459438"
           style="vector-effect:non-scaling-stroke;fill:#ffffff;fill-opacity:1;stroke:#000000;stroke-width:1;stroke-dasharray:none;stroke-opacity:1;-inkscape-stroke:hairline">ALTERHUMAN BLOCK</tspan></text></g><g
       id="g1576"
       style="display:none"><g
         id="g1559"
         transform="matrix(0.98503488,-0.6509701,0.6509174,0.9851145,3.1849419,40.464838)"
         style="stroke-width:0.846941"><circle
           style="fill:none;fill-opacity:1;stroke:#000000;stroke-width:0.846941;stroke-linejoin:round;stroke-miterlimit:4.5;stroke-dasharray:none;stroke-opacity:1"
           id="circle1555"
           cx="25.848166"
           cy="11.414976"
           r="7.5" /><path
           style="fill:none;fill-opacity:1;stroke:#000000;stroke-width:1.03145;stroke-linejoin:round;stroke-miterlimit:4.5;stroke-dasharray:none;stroke-opacity:1"
           id="path1557"
           d="M 15.060406,13.756299 25.721009,-4.708405 36.38161,13.7563 Z"
           transform="matrix(0.82173425,0,0,0.82049939,4.7490085,5.2138195)" /></g><g
         id="g1553"
         transform="matrix(0.95154652,0.63993916,-0.63991015,0.95158967,-2.923758,7.0266288)"
         style="stroke-width:0.872046"><circle
           style="fill:none;fill-opacity:1;stroke:#000000;stroke-width:0.872046;stroke-linejoin:round;stroke-miterlimit:4.5;stroke-dasharray:none;stroke-opacity:1"
           id="circle1549"
           cx="25.848166"
           cy="11.414976"
           r="7.5" /><path
           style="fill:none;fill-opacity:1;stroke:#000000;stroke-width:1.06202;stroke-linejoin:round;stroke-miterlimit:4.5;stroke-dasharray:none;stroke-opacity:1"
           id="path1551"
           d="M 15.060406,13.756299 25.721009,-4.708405 36.38161,13.7563 Z"
           transform="matrix(0.82173425,0,0,0.82049939,4.7490085,5.2138195)" /></g><g
         id="g1547"
         transform="matrix(1.0128176,0.51317405,-0.65618715,0.70336358,3.3509298,-9.6223566)"
         style="stroke-width:0.976311"><circle
           style="fill:none;fill-opacity:1;stroke:#000000;stroke-width:0.976311;stroke-linejoin:round;stroke-miterlimit:4.5;stroke-dasharray:none;stroke-opacity:1"
           id="path1541"
           cx="25.848166"
           cy="11.414976"
           r="7.5" /><path
           style="fill:none;fill-opacity:1;stroke:#000000;stroke-width:1.189;stroke-linejoin:round;stroke-miterlimit:4.5;stroke-dasharray:none;stroke-opacity:1"
           id="path1543"
           d="M 15.060406,13.756299 25.721009,-4.708405 36.38161,13.7563 Z"
           transform="matrix(0.82173425,0,0,0.82049939,4.7490085,5.2138195)" /></g></g></g><style
     id="style2"
     type="text/css">&#10;	.st0{fill:#B57EDC;}&#10;	.st1{fill:#8E0000;}&#10;	.st2{fill:#714693;}&#10;	.st3{fill:#5C0120;}&#10;	.st4{fill:#FFCC33;}&#10;</style></svg>
