<?xml version="1.0" encoding="UTF-8"?>
<!-- Created with Inkscape (http://www.inkscape.org/) -->
<svg width="2e3" height="1e3" version="1.1" viewBox="0 0 2e3 1e3" xml:space="preserve" xmlns="http://www.w3.org/2000/svg"><rect x="1e3" width="1e3" height="1e3" fill="#3f0d3f" style="paint-order:markers stroke fill"/><rect width="1e3" height="1e3" fill="#7c0303" style="paint-order:markers stroke fill"/><g fill-opacity=".5" fill-rule="evenodd" stroke-linecap="round" stroke-linejoin="round" stroke-width="100"><path transform="matrix(-1.1276 -.69801 .69801 -1.1276 1209.8 1378.4)" d="m355.97 464.68c-7.9541 44.19-63.492 11.08-73.447-13.22-26.978-65.852 39.722-125.8 99.888-133.67 107.62-14.079 190.78 85.787 193.9 186.56 4.588 147.88-132.23 256.99-273.22 254.13-187.92-3.8076-323.68-178.77-314.36-359.89 11.736-227.92 225.35-390.62 446.56-374.58 267.91 19.426 457.7 271.96 434.81 533.23-26.977 307.9-318.57 524.87-619.89 495.04" fill="#310f0f" stroke="#310f0f"/><path transform="matrix(.85678 -.53035 -.53035 -.85678 280.69 1164.4)" d="m355.97 464.68c-7.9541 44.19-63.492 11.08-73.447-13.22-26.978-65.852 39.722-125.8 99.888-133.67 107.62-14.079 190.78 85.787 193.9 186.56 4.588 147.88-132.23 256.99-273.22 254.13-187.92-3.8076-323.68-178.77-314.36-359.89 11.736-227.92 225.35-390.62 446.56-374.58 267.91 19.426 457.7 271.96 434.81 533.23-26.977 307.9-318.57 524.87-619.89 495.04" fill="#bc3031" stroke="#bc3031" stroke-opacity=".5"/><path transform="matrix(-.61451 .49454 .49454 .61451 1725.3 88.287)" d="m355.97 464.68c-7.9541 44.19-63.492 11.08-73.447-13.22-26.978-65.852 39.722-125.8 99.888-133.67 107.62-14.079 190.78 85.787 193.9 186.56 4.588 147.88-132.23 256.99-273.22 254.13-187.92-3.8076-323.68-178.77-314.36-359.89 11.736-227.92 225.35-390.62 446.56-374.58 267.91 19.426 457.7 271.96 434.81 533.23-26.977 307.9-318.57 524.87-619.89 495.04" fill="#167e86" stroke="#167e86" stroke-opacity=".5"/></g><path d="m1359.9 517.37c39.034 85.694 99.577 69.953 142 51.841 20.862 47.001 27.788 63.567-9.9312 80.841-22.4 10.259-28.968 18.408-26.664 33.085 2.1202 13.504 24.55 55.862 31.464 59.418 6.6559 3.4239 413.02-181.41 414.81-188.67 1.8606-7.547-15.344-52.282-24.134-62.752-19.403-23.111-53.559 12.051-74.302 6.2786-17.588-4.8941-26.492-33.912-35.65-53.548 83.972-36.005 75.375-102.62 54.207-141.09-42.478-77.185-130.71-190.39-273.83-92.649-28.801 19.668-47.668 29.989-79.376 37.056-191.83 42.754-139.54 219.11-118.59 270.19zm296.76-154.54c10.135 109.53-68.784 135.88-138.1 60.427-6.5814-18.971-9.4373-72.772 45.036-89.525 43.524-25.471 73.552 1.0016 93.061 29.098zm-97.168 7.2276c18.285 87.262 53.268 77.058 61.277 53.501-17.499-59.694-35.965-86.595-61.277-53.501zm103.65 478.76c25.953 28.722 173.2 171.78 403.18 147.77 59.976-6.2625 64.352-12.053 44.932-54.727-27.879-61.261-81.885-108.78-156.79-144.78-32.063-20.262-53.318 8.7792-67.746 25.494-9.2272-15.095-8.4579-23.953-20.115-35.431-41.915-15.441-133.63 7.1166-133.63 7.1166-87.663-54.734-96.231-69.139-103.06-76.474-23.565-9.175-38.331 9.1463-38.688 17.569 14.044 48.458 52.831 92.331 71.928 113.46z" fill="#17bee5" stroke-width="3.2206"/><path transform="matrix(-.71695 -.6965 -.68149 .73275 0 0)" d="m-330.68-98.23h-134.15l-359.12 436.91h-325.12v-111.79h269.69l359.12-436.91h189.57l-92.225-92.225 67.539-67.539 183.05 183.05v65.21l-183.05 186.78-67.539-71.265zm-190.51 436.91v-111.79h326.05v111.79z" fill="#e53e3f" stroke-linecap="round" stroke-linejoin="round" stroke-miterlimit="1.5" stroke-opacity=".5" stroke-width="136.28" style="paint-order:markers stroke fill" aria-label="⎇"/></svg>
