<?xml version="1.0" encoding="UTF-8"?>
<!-- Created with Inkscape (http://www.inkscape.org/) -->
<svg width="92" height="102" version="1.1" viewBox="0 0 24.342 26.987" xml:space="preserve" xmlns="http://www.w3.org/2000/svg"><g><g stroke-linejoin="round" stroke-width="3.175"><path d="m12.171 12.171v13.229l10.583-5.2917v-13.229z" fill="#167e86" stroke="#141414"/><path d="m1.5875 20.108 10.583 5.2917v-13.229l-10.583-5.2917z" fill="#bc3031" stroke="#292929"/><path d="m1.5875 6.8792 10.583 5.2917 10.583-5.2917-10.583-5.2917z" fill="#310f0f" stroke="#3d3d3d"/></g><path d="m14.23 18.92c0.07185-0.80366 0.72907-5.0323 4.8589-7.5159 1.077-0.64771 1.2225-0.60616 1.4344 0.34796 0.30418 1.3697 0.0011 2.8382-0.79459 4.3768-0.27967 0.73943-0.99773 0.52231-1.4476 0.42487 0.03569 0.36706 0.15961 0.50492 0.10949 0.8422-0.50416 0.78266-2.314 1.557-2.314 1.557-0.77298 2.0106-0.73497 2.3579-0.75669 2.5657-0.27724 0.44825-0.75282 0.3283-0.8644 0.19251-0.37394-0.98302-0.27843-2.1999-0.22556-2.7913z" fill="#781c11" stroke-width=".06713"/><path d="m3.6783 15.563c-0.063919-1.6483 0.64241-1.4915 1.1816-1.2458-0.023042-0.94962-0.035941-1.2904-0.53193-1.531-0.29269-0.14205-0.40635-0.28421-0.46272-0.57956-0.052253-0.27384-0.04977-1.1945 0.00462-1.2886 0.052612-0.09103 5.7413 2.5634 5.7963 2.7101 0.056613 0.15177 0.035483 1.1079-0.028293 1.3382-0.1387 0.50091-0.70733-0.11927-0.93102 0.04123-0.18753 0.13457-0.16273 0.71612-0.1828 1.1097 1.1508 0.52816 1.3232 1.7908 1.23 2.5212-0.17948 1.4069-0.70591 3.3545-2.6134 1.8824-0.38073-0.29385-0.61821-0.44414-0.9695-0.5286-2.0571-0.49445-2.4338-3.493-2.4928-4.4292zm3.8404 2.2489c-0.3892-2.018-1.3843-2.3544-1.7562-0.85675 0.022429 0.34491 0.2468 1.2808 0.88997 1.4954 0.57439 0.38145 0.77911-0.11569 0.8662-0.63863zm-1.0762 0.01537c-0.21694-1.5869 0.20979-1.4639 0.40738-1.0486 0.085961 1.0934 0.011456 1.5881-0.40738 1.0486z" fill="#114242" stroke-width=".03734"/><path d="m15.017 7.5375-0.88497-0.42886-6.1447 0.76021-2.0752-1.0199 0.95091-0.48347 1.7286 0.84655 6.1697-0.7729 1.256 0.60643 0.21575-0.70388 1.0597-0.083873-0.43187 1.3991-0.58655 0.28661-2.8711 0.22918 0.18686-0.52625zm-5.0827 1.2882 0.97037-0.48098 2.1226 1.0395-0.98067 0.47964z" fill="#3fcfcf" stroke-linejoin="round" stroke-miterlimit="0" stroke-width=".26458" aria-label="⎇"/></g></svg>
